<svg xmlns="http://www.w3.org/2000/svg" version="1.1" xmlns:xlink="http://www.w3.org/1999/xlink" xmlns:svgjs="http://svgjs.dev/svgjs" viewBox="0 0 800 800"><defs><linearGradient x1="50%" y1="0%" x2="50%" y2="100%" id="ffflurry-grad" gradientTransform="rotate(270)"><stop stop-color="hsl(238, 82%, 13%)" stop-opacity="1" offset="0%"></stop><stop stop-color="hsl(230, 100%, 67%)" stop-opacity="1" offset="45%"></stop><stop stop-color="hsl(167, 52%, 78%)" stop-opacity="1" offset="100%"></stop></linearGradient></defs><rect width="100%" height="100%" fill="hsl(238, 82%, 13%)"></rect><g fill="url(#ffflurry-grad)"><rect width="549" height="3" x="485.5" y="732.5" rx="1.5" transform="rotate(45, 760, 734)" opacity="0.11"></rect><rect width="177" height="3" x="125.5" y="356.5" rx="1.5" transform="rotate(45, 214, 358)" opacity="0.63"></rect><rect width="421" height="3" x="157.5" y="754.5" rx="1.5" transform="rotate(45, 368, 756)" opacity="0.34"></rect><rect width="458" height="3" x="110" y="87.5" rx="1.5" transform="rotate(45, 339, 89)" opacity="0.40"></rect><rect width="459" height="3" x="321.5" y="38.5" rx="1.5" transform="rotate(45, 551, 40)" opacity="0.63"></rect><rect width="362" height="3" x="-119" y="92.5" rx="1.5" transform="rotate(45, 62, 94)" opacity="0.90"></rect><rect width="393" height="3" x="-24.5" y="752.5" rx="1.5" transform="rotate(45, 172, 754)" opacity="0.30"></rect><rect width="196" height="3" x="-50" y="458.5" rx="1.5" transform="rotate(45, 48, 460)" opacity="0.11"></rect><rect width="664" height="3" x="69" y="643.5" rx="1.5" transform="rotate(45, 401, 645)" opacity="0.20"></rect><rect width="319" height="3" x="-101.5" y="274.5" rx="1.5" transform="rotate(45, 58, 276)" opacity="0.18"></rect><rect width="139" height="3" x="390.5" y="161.5" rx="1.5" transform="rotate(45, 460, 163)" opacity="0.70"></rect><rect width="181" height="3" x="104.5" y="154.5" rx="1.5" transform="rotate(45, 195, 156)" opacity="0.66"></rect><rect width="152" height="3" x="442" y="445.5" rx="1.5" transform="rotate(45, 518, 447)" opacity="0.72"></rect><rect width="112" height="3" x="448" y="289.5" rx="1.5" transform="rotate(45, 504, 291)" opacity="0.58"></rect><rect width="118" height="3" x="348" y="342.5" rx="1.5" transform="rotate(45, 407, 344)" opacity="0.40"></rect><rect width="107" height="3" x="439.5" y="530.5" rx="1.5" transform="rotate(45, 493, 532)" opacity="0.54"></rect><rect width="465" height="3" x="162.5" y="445.5" rx="1.5" transform="rotate(45, 395, 447)" opacity="0.71"></rect><rect width="471" height="3" x="515.5" y="456.5" rx="1.5" transform="rotate(45, 751, 458)" opacity="0.60"></rect><rect width="67" height="3" x="210.5" y="48.5" rx="1.5" transform="rotate(45, 244, 50)" opacity="0.98"></rect><rect width="238" height="3" x="161" y="22.5" rx="1.5" transform="rotate(45, 280, 24)" opacity="0.52"></rect><rect width="719" height="3" x="307.5" y="741.5" rx="1.5" transform="rotate(45, 667, 743)" opacity="0.91"></rect><rect width="243" height="3" x="345.5" y="390.5" rx="1.5" transform="rotate(45, 467, 392)" opacity="0.93"></rect><rect width="60" height="3" x="442" y="765.5" rx="1.5" transform="rotate(45, 472, 767)" opacity="0.50"></rect><rect width="355" height="3" x="585.5" y="540.5" rx="1.5" transform="rotate(45, 763, 542)" opacity="0.54"></rect><rect width="644" height="3" x="-281" y="573.5" rx="1.5" transform="rotate(45, 41, 575)" opacity="0.39"></rect><rect width="645" height="3" x="313.5" y="139.5" rx="1.5" transform="rotate(45, 636, 141)" opacity="0.54"></rect><rect width="530" height="3" x="413" y="513.5" rx="1.5" transform="rotate(45, 678, 515)" opacity="0.53"></rect><rect width="144" height="3" x="257" y="25.5" rx="1.5" transform="rotate(45, 329, 27)" opacity="0.55"></rect><rect width="411" height="3" x="55.5" y="96.5" rx="1.5" transform="rotate(45, 261, 98)" opacity="0.79"></rect><rect width="630" height="3" x="437" y="358.5" rx="1.5" transform="rotate(45, 752, 360)" opacity="0.18"></rect><rect width="339" height="3" x="220.5" y="254.5" rx="1.5" transform="rotate(45, 390, 256)" opacity="0.33"></rect><rect width="263" height="3" x="-22.5" y="208.5" rx="1.5" transform="rotate(45, 109, 210)" opacity="0.13"></rect><rect width="134" height="3" x="10" y="150.5" rx="1.5" transform="rotate(45, 77, 152)" opacity="0.51"></rect><rect width="408" height="3" x="170" y="543.5" rx="1.5" transform="rotate(45, 374, 545)" opacity="0.40"></rect><rect width="19" height="3" x="213.5" y="14.5" rx="1.5" transform="rotate(45, 223, 16)" opacity="0.24"></rect><rect width="315" height="3" x="493.5" y="621.5" rx="1.5" transform="rotate(45, 651, 623)" opacity="0.79"></rect><rect width="69" height="3" x="-8.5" y="181.5" rx="1.5" transform="rotate(45, 26, 183)" opacity="0.45"></rect><rect width="482" height="3" x="501" y="139.5" rx="1.5" transform="rotate(45, 742, 141)" opacity="0.37"></rect><rect width="271" height="3" x="161.5" y="688.5" rx="1.5" transform="rotate(45, 297, 690)" opacity="0.45"></rect><rect width="319" height="3" x="385.5" y="167.5" rx="1.5" transform="rotate(45, 545, 169)" opacity="0.38"></rect><rect width="539" height="3" x="325.5" y="508.5" rx="1.5" transform="rotate(45, 595, 510)" opacity="0.39"></rect><rect width="350" height="3" x="289" y="62.5" rx="1.5" transform="rotate(45, 464, 64)" opacity="0.46"></rect><rect width="172" height="3" x="236" y="356.5" rx="1.5" transform="rotate(45, 322, 358)" opacity="0.58"></rect><rect width="489" height="3" x="15.5" y="215.5" rx="1.5" transform="rotate(45, 260, 217)" opacity="0.64"></rect><rect width="261" height="3" x="9.5" y="133.5" rx="1.5" transform="rotate(45, 140, 135)" opacity="0.80"></rect><rect width="131" height="3" x="123.5" y="440.5" rx="1.5" transform="rotate(45, 189, 442)" opacity="0.51"></rect><rect width="66" height="3" x="252" y="155.5" rx="1.5" transform="rotate(45, 285, 157)" opacity="0.27"></rect><rect width="290" height="3" x="419" y="751.5" rx="1.5" transform="rotate(45, 564, 753)" opacity="0.24"></rect><rect width="311" height="3" x="332.5" y="689.5" rx="1.5" transform="rotate(45, 488, 691)" opacity="0.36"></rect><rect width="382" height="3" x="416" y="266.5" rx="1.5" transform="rotate(45, 607, 268)" opacity="0.38"></rect><rect width="234" height="3" x="-45" y="24.5" rx="1.5" transform="rotate(45, 72, 26)" opacity="0.59"></rect><rect width="300" height="3" x="517" y="384.5" rx="1.5" transform="rotate(45, 667, 386)" opacity="0.10"></rect><rect width="639" height="3" x="-64.5" y="541.5" rx="1.5" transform="rotate(45, 255, 543)" opacity="0.37"></rect><rect width="117" height="3" x="61.5" y="372.5" rx="1.5" transform="rotate(45, 120, 374)" opacity="0.69"></rect><rect width="506" height="3" x="115" y="164.5" rx="1.5" transform="rotate(45, 368, 166)" opacity="0.22"></rect><rect width="113" height="3" x="-37.5" y="63.5" rx="1.5" transform="rotate(45, 19, 65)" opacity="0.16"></rect><rect width="337" height="3" x="571.5" y="43.5" rx="1.5" transform="rotate(45, 740, 45)" opacity="0.31"></rect><rect width="545" height="3" x="-234.5" y="356.5" rx="1.5" transform="rotate(45, 38, 358)" opacity="0.89"></rect><rect width="683" height="3" x="-46.5" y="452.5" rx="1.5" transform="rotate(45, 295, 454)" opacity="0.47"></rect><rect width="322" height="3" x="601" y="252.5" rx="1.5" transform="rotate(45, 762, 254)" opacity="0.99"></rect><rect width="150" height="3" x="324" y="32.5" rx="1.5" transform="rotate(45, 399, 34)" opacity="0.97"></rect><rect width="198" height="3" x="58" y="29.5" rx="1.5" transform="rotate(45, 157, 31)" opacity="0.20"></rect><rect width="709" height="3" x="-185.5" y="257.5" rx="1.5" transform="rotate(45, 169, 259)" opacity="0.32"></rect><rect width="222" height="3" x="10" y="81.5" rx="1.5" transform="rotate(45, 121, 83)" opacity="0.75"></rect><rect width="231" height="3" x="460.5" y="649.5" rx="1.5" transform="rotate(45, 576, 651)" opacity="0.37"></rect><rect width="359" height="3" x="565.5" y="623.5" rx="1.5" transform="rotate(45, 745, 625)" opacity="0.58"></rect><rect width="100" height="3" x="-7" y="732.5" rx="1.5" transform="rotate(45, 43, 734)" opacity="0.59"></rect><rect width="223" height="3" x="-13.5" y="654.5" rx="1.5" transform="rotate(45, 98, 656)" opacity="0.28"></rect><rect width="135" height="3" x="130.5" y="80.5" rx="1.5" transform="rotate(45, 198, 82)" opacity="0.07"></rect><rect width="458" height="3" x="-15" y="648.5" rx="1.5" transform="rotate(45, 214, 650)" opacity="0.86"></rect><rect width="114" height="3" x="212" y="287.5" rx="1.5" transform="rotate(45, 269, 289)" opacity="0.10"></rect><rect width="316" height="3" x="527" y="236.5" rx="1.5" transform="rotate(45, 685, 238)" opacity="0.57"></rect><rect width="87" height="3" x="109.5" y="578.5" rx="1.5" transform="rotate(45, 153, 580)" opacity="0.79"></rect><rect width="383" height="3" x="438.5" y="53.5" rx="1.5" transform="rotate(45, 630, 55)" opacity="0.55"></rect><rect width="144" height="3" x="421" y="604.5" rx="1.5" transform="rotate(45, 493, 606)" opacity="0.11"></rect><rect width="227" height="3" x="468.5" y="378.5" rx="1.5" transform="rotate(45, 582, 380)" opacity="0.29"></rect><rect width="71" height="3" x="95.5" y="502.5" rx="1.5" transform="rotate(45, 131, 504)" opacity="0.54"></rect></g></svg>